<?xml version="1.0" encoding="utf-8"?>
<!-- Generator: Adobe Illustrator 26.2.1, SVG Export Plug-In . SVG Version: 6.00 Build 0)  -->
<svg version="1.1" id="Layer_1" xmlns="http://www.w3.org/2000/svg" xmlns:xlink="http://www.w3.org/1999/xlink" x="0px" y="0px"
	 viewBox="0 0 40 40" style="enable-background:new 0 0 40 40;" xml:space="preserve">
<style type="text/css">
	.st0{fill:#FFFFFF;}
</style>
<path class="st0" d="M14.38,26.56l0.14-0.22l8.44-13.2c0.12-0.19,0.41-0.17,0.51,0.04c1.41,3.16,2.63,7.09,2.06,9.54
	c-0.24,1.01-0.91,2.37-1.66,3.63c-0.1,0.18-0.2,0.36-0.32,0.54C23.49,26.95,23.4,27,23.31,27h-8.68
	C14.39,27,14.26,26.75,14.38,26.56z"/>
<path class="st0" d="M40,25.01v2.09c0,0.12-0.07,0.23-0.18,0.27c-0.65,0.28-2.89,1.31-3.82,2.6c-2.37,3.3-4.19,8.03-8.24,8.03H10.85
	C4.86,38,0,33.13,0,27.11v-0.19c0-0.16,0.13-0.29,0.29-0.29h9.43c0.19,0,0.32,0.17,0.31,0.36c-0.07,0.61,0.05,1.24,0.34,1.81
	c0.56,1.14,1.72,1.85,2.97,1.85H18V27h-4.61c-0.24,0-0.38-0.27-0.24-0.47c0.05-0.08,0.11-0.16,0.17-0.25
	c0.44-0.62,1.06-1.58,1.68-2.68c0.42-0.74,0.83-1.53,1.16-2.32c0.07-0.14,0.12-0.29,0.17-0.43c0.09-0.25,0.18-0.49,0.25-0.73
	c0.07-0.2,0.12-0.41,0.17-0.61c0.16-0.67,0.22-1.39,0.22-2.13c0-0.29-0.01-0.59-0.04-0.88c-0.01-0.32-0.05-0.63-0.09-0.95
	c-0.03-0.28-0.08-0.56-0.13-0.85c-0.07-0.42-0.16-0.84-0.27-1.27l-0.04-0.16c-0.08-0.29-0.15-0.57-0.24-0.86
	c-0.26-0.91-0.57-1.8-0.89-2.63c-0.12-0.33-0.25-0.65-0.38-0.96c-0.2-0.48-0.4-0.91-0.58-1.32c-0.09-0.19-0.17-0.36-0.25-0.53
	c-0.09-0.2-0.18-0.39-0.28-0.58c-0.07-0.14-0.14-0.28-0.2-0.41l-0.57-1.05c-0.08-0.14,0.05-0.31,0.21-0.27l3.57,0.97h0.01
	c0.01,0,0.01,0,0.01,0l0.47,0.13l0.52,0.15L18,5.97V3.85C18,2.83,18.82,2,19.83,2c0.51,0,0.97,0.21,1.3,0.54
	c0.33,0.34,0.54,0.8,0.54,1.31V7l0.38,0.11c0.03,0.01,0.06,0.02,0.09,0.04c0.09,0.07,0.23,0.17,0.4,0.3
	c0.13,0.11,0.28,0.24,0.45,0.37c0.34,0.28,0.75,0.63,1.2,1.04c0.12,0.1,0.24,0.21,0.34,0.32c0.58,0.54,1.23,1.17,1.85,1.87
	c0.17,0.2,0.34,0.4,0.52,0.61c0.17,0.21,0.36,0.42,0.52,0.63c0.21,0.28,0.44,0.57,0.63,0.87c0.09,0.14,0.2,0.29,0.29,0.43
	c0.25,0.38,0.48,0.78,0.69,1.18c0.09,0.18,0.18,0.38,0.26,0.58c0.24,0.53,0.42,1.07,0.54,1.61c0.04,0.12,0.06,0.24,0.08,0.36v0.03
	c0.04,0.16,0.05,0.33,0.07,0.5c0.05,0.55,0.03,1.11-0.09,1.66c-0.05,0.24-0.12,0.46-0.2,0.7c-0.08,0.23-0.16,0.46-0.26,0.69
	c-0.2,0.46-0.44,0.93-0.72,1.36c-0.09,0.16-0.2,0.33-0.3,0.49c-0.12,0.17-0.24,0.33-0.34,0.49c-0.15,0.2-0.3,0.41-0.46,0.6
	c-0.14,0.2-0.29,0.39-0.45,0.57c-0.22,0.26-0.44,0.51-0.66,0.75c-0.13,0.16-0.28,0.32-0.42,0.46c-0.14,0.16-0.29,0.3-0.42,0.44
	c-0.22,0.22-0.41,0.4-0.57,0.54l-0.37,0.34c-0.05,0.05-0.12,0.07-0.2,0.07h-2.84v3.64h3.57c0.8,0,1.56-0.28,2.17-0.8
	c0.21-0.18,1.13-0.98,2.21-2.17c0.04-0.04,0.08-0.07,0.14-0.08l9.87-2.85C39.81,24.68,40,24.82,40,25.01z"/>
</svg>
